<svg id="svg8" xmlns="http://www.w3.org/2000/svg" xmlns:xlink="http://www.w3.org/1999/xlink" viewBox="0 0 549.85 418.17"><defs><style>.cls-1{fill:#4d4d4d;}.cls-2{fill:url(#linear-gradient);}.cls-3{fill:url(#linear-gradient-2);}.cls-4{fill:url(#linear-gradient-3);}.cls-5{fill:url(#radial-gradient);}.cls-6{fill:url(#radial-gradient-2);}.cls-7{fill:none;stroke:#4d4d4d;stroke-miterlimit:15.12;stroke-width:1.74px;}.cls-8{fill:url(#radial-gradient-3);}.cls-9{fill:url(#radial-gradient-4);}.cls-10{fill:url(#linear-gradient-4);}.cls-11{fill:#666;fill-rule:evenodd;}.cls-12{fill:gray;}</style><linearGradient id="linear-gradient" x1="-2717.12" y1="468.25" x2="-2716.12" y2="468.25" gradientTransform="matrix(3.24, 72.61, -72.61, 3.24, 43064.31, 195806.38)" gradientUnits="userSpaceOnUse"><stop offset="0" stop-color="#666"/><stop offset="1" stop-color="#1a1a1a"/></linearGradient><linearGradient id="linear-gradient-2" x1="-2731.51" y1="489.21" x2="-2730.51" y2="489.21" gradientTransform="translate(20650.55 513507.39) rotate(97.86) scale(185.11)" gradientUnits="userSpaceOnUse"><stop offset="0" stop-color="#4d4d4d"/><stop offset="1" stop-color="#333"/></linearGradient><linearGradient id="linear-gradient-3" x1="-2724.12" y1="490.83" x2="-2723.12" y2="490.83" gradientTransform="matrix(45.07, 155.59, -155.59, 45.07, 199616.39, 401974)" gradientUnits="userSpaceOnUse"><stop offset="0" stop-color="#4d4d4d"/><stop offset="1" stop-color="#1a1a1a"/></linearGradient><radialGradient id="radial-gradient" cx="-2719.33" cy="472.04" r="1" gradientTransform="matrix(22.54, 104.53, -71.23, 15.36, 95046.13, 277087.13)" gradientUnits="userSpaceOnUse"><stop offset="0" stop-color="gray"/><stop offset="1" stop-color="#333"/></radialGradient><radialGradient id="radial-gradient-2" cx="-2720.85" cy="495.07" r="1" gradientTransform="matrix(-3.87, 73.04, -287.87, -15.26, 132120.13, 206379.87)" gradientUnits="userSpaceOnUse"><stop offset="0"/><stop offset="1" stop-color="#666"/></radialGradient><radialGradient id="radial-gradient-3" cx="-2719.33" cy="472.04" r="1" gradientTransform="matrix(22.54, 104.53, -71.23, 15.36, 95266.94, 277162.27)" xlink:href="#radial-gradient"/><radialGradient id="radial-gradient-4" cx="-2720.85" cy="495.07" r="1" gradientTransform="matrix(-3.86, 73.04, -287.87, -15.23, 132365.81, 206439.15)" xlink:href="#radial-gradient-2"/><linearGradient id="linear-gradient-4" x1="-2731.51" y1="489.21" x2="-2730.51" y2="489.21" gradientTransform="translate(20650.55 513507.39) rotate(97.86) scale(185.11)" xlink:href="#linear-gradient-3"/></defs><path class="cls-1" d="M61.15,70.8c7.1-44.2,98.5-63.6,136.2-34.5Z"/><path class="cls-1" d="M486.25,69.6c-7.1-44.2-98.5-63.6-136.2-34.5Z"/><path d="M239,48.8c-100.3.3-130.9,11.3-162.1,25.1-34.5,15.3-43.7,72.9-43.7,72.9S7.85,284.4.85,343.3s31,72,51.1,74.7,46.7-27.5,65.1-72,39.3-40.2,39.3-40.2l117-.4,120.1.4s21-4.4,39.3,40.2,45,74.7,65.1,72S556,402.3,549,343.3s-32.3-196.5-32.3-196.5S507.5,89.2,473,73.9,400.05,46.8,272.55,49c-12.1-.1-23.2-.2-33.6-.2Z"/><path class="cls-2" d="M239,31.7C138.65,32,108.05,43,76.85,56.8c-34.5,15.3-43.7,72.9-43.7,72.9S7.85,267.3.85,326.2s31,72,51.1,74.7,46.7-27.5,65.1-72,39.3-40.2,39.3-40.2l117-.4,120.1.4s21-4.4,39.3,40.2,45,74.7,65.1,72S556,385.2,549,326.2s-32.3-196.5-32.3-196.5S507.5,72.1,473,56.8,400.1,29.7,272.6,31.9C260.5,31.8,249.4,31.7,239,31.7Z"/><path d="M181.65,173.7h17a4.8,4.8,0,0,1,4.8,4.8h0v69a4.8,4.8,0,0,1-4.8,4.8h-17a4.8,4.8,0,0,1-4.8-4.8h0v-69a4.74,4.74,0,0,1,4.68-4.8h.12Z"/><path d="M229.45,204.5v17a4.8,4.8,0,0,1-4.8,4.8h-69a4.8,4.8,0,0,1-4.8-4.8h0v-17a4.8,4.8,0,0,1,4.8-4.8h69a4.8,4.8,0,0,1,4.8,4.8Z"/><circle cx="419.15" cy="171.2" r="19.9"/><circle cx="461.96" cy="134.98" r="19.9"/><circle cx="419.15" cy="97.4" r="19.9"/><circle cx="376.75" cy="134.1" r="19.9"/><path class="cls-3" d="M30.75,142.9c-5.5,30.5-24,133-29.9,183.3-7,58.9,31,72,51.1,74.7s46.7-27.5,65.1-72c8.3-20,17-30.2,24.2-35.2C100,250.6,45.65,166.4,30.75,142.9Z"/><path class="cls-4" d="M518.45,142.7c5.5,30.5,24,133,29.9,183.3,7,58.9-31,72-51.1,74.7s-46.7-27.5-65.1-72c-8.3-20-17-30.2-24.2-35.2C449.35,250.4,503.55,166.2,518.45,142.7Z"/><circle class="cls-5" cx="124.25" cy="133" r="49.1"/><circle class="cls-6" cx="124.26" cy="133.01" r="38.6"/><circle cx="342.25" cy="94.8" r="10.9"/><circle class="cls-7" cx="313.39" cy="134.71" r="15.5"/><circle cx="313.37" cy="136.1" r="10.9"/><circle cx="206.76" cy="94.6" r="10.9"/><path d="M228.45,124.9h13.6a4.8,4.8,0,0,1,4.8,4.8v13.1a4.8,4.8,0,0,1-4.8,4.8h-13.6a4.8,4.8,0,0,1-4.8-4.8h0V129.7A4.8,4.8,0,0,1,228.45,124.9Z"/><circle class="cls-8" cx="345.05" cy="208.2" r="49.1"/><circle class="cls-9" cx="345.05" cy="208.2" r="38.6"/><path class="cls-1" d="M181.65,168.8h17a4.8,4.8,0,0,1,4.8,4.8h0v69a4.8,4.8,0,0,1-4.8,4.8h-17a4.8,4.8,0,0,1-4.8-4.8h0v-69a4.74,4.74,0,0,1,4.68-4.8h.12Z"/><path class="cls-1" d="M229.45,199.6v17a4.8,4.8,0,0,1-4.8,4.8h-69a4.8,4.8,0,0,1-4.8-4.8h0v-17a4.8,4.8,0,0,1,4.8-4.8h69a4.8,4.8,0,0,1,4.8,4.8Z"/><path class="cls-10" d="M30.75,142.9c-5.5,30.5-24,133-29.9,183.3-7,58.9,31,72,51.1,74.7s46.7-27.5,65.1-72c8.3-20,17-30.2,24.2-35.2C100,250.6,45.65,166.4,30.75,142.9Z"/><path class="cls-11" d="M283.55,66.5a3.55,3.55,0,1,0,3.39,3.74V70.1a3.42,3.42,0,0,0-3.23-3.6h-.16Zm-6.9,1.8v-17c0-.5,0-.5.5-.5h5.3a9,9,0,0,1,8.7,7.2,13.42,13.42,0,0,1,.2,2V76.7a9,9,0,0,1-5.9,8.5,10.92,10.92,0,0,1-3.1.6h-5.1c-.6,0-.6,0-.6-.6V68.3"/><path class="cls-11" d="M270.25,83V53.7h-4.8a7.52,7.52,0,0,0-1.5.1,6.07,6.07,0,0,0-4.9,5.9V77a5.84,5.84,0,0,0,2,4.4,6.13,6.13,0,0,0,4.3,1.6Zm2.9-14.7v17c0,.4,0,.5-.5.5h-7.2a8.87,8.87,0,0,1-6.4-2.5,9.23,9.23,0,0,1-2.6-4.6,8.65,8.65,0,0,1-.2-1.6c0-5.9-.1-11.7,0-17.6a9,9,0,0,1,9.2-8.7h7.2c.5,0,.5,0,.5.5v17"/><path class="cls-11" d="M256.15,97.7h1.6a.22.22,0,0,1,.2.2c.5,1.9,1,3.7,1.5,5.7a2.44,2.44,0,0,0,.2-.7c.5-1.7,1-3.3,1.4-5,.1-.2.1-.3.4-.3h.8a.44.44,0,0,1,.5.3c.5,1.7,1,3.5,1.5,5.2,0,.1.1.2.1.4l.3-1.2,1.2-4.5.2-.2h1.6c-.1.4-.2.8-.3,1.1-.7,2.3-1.3,4.6-2,6.9-.1.2-.2.3-.4.3h-1.4c-.2,0-.3-.1-.4-.3-.4-1.6-.9-3.3-1.4-4.9a.3.3,0,0,0-.1-.2,9.72,9.72,0,0,0-.4,1.4c-.3,1.2-.7,2.5-1,3.7-.1.2-.1.3-.4.3h-1.5c-.2,0-.3,0-.3-.2-.7-2.6-1.5-5.2-2.2-7.9.3.1.3,0,.3-.1"/><path class="cls-11" d="M293.65,97.7v2.9c0,.3.1.4.4.4h3.1c.3,0,.4-.1.4-.4V97.8h1.7V106h-1.7v-3.2h-3.8v3.3h-1.6a1.06,1.06,0,0,1-.1-.3V98.1a.27.27,0,0,1,.24-.3h.06a5.15,5.15,0,0,1,1.3-.1"/><path class="cls-11" d="M247.55,105.3c.2-.4.5-.9.7-1.3a14.82,14.82,0,0,0,1.6.5,5,5,0,0,0,2.7,0c.2,0,.3-.1.5-.2a.69.69,0,0,0,.31-.92.65.65,0,0,0-.51-.38,12.31,12.31,0,0,0-1.8-.4,7.63,7.63,0,0,1-2.6-.8,1.89,1.89,0,0,1-.65-2.58,1.57,1.57,0,0,1,.35-.42,4.56,4.56,0,0,1,3.1-1.1,8.11,8.11,0,0,1,3,.6l.2.1c-.2.5-.4.9-.6,1.4a5.87,5.87,0,0,0-1.8-.4,5.44,5.44,0,0,0-2.2.1.63.63,0,0,0-.5.6c0,.4.2.6.5.6.7.2,1.3.3,2,.5s1.3.4,2,.6a1.84,1.84,0,0,1,1.3,1.8,2.33,2.33,0,0,1-1.2,2.1,5.64,5.64,0,0,1-2.2.6,9.59,9.59,0,0,1-4.1-.7l-.1-.3h0"/><path class="cls-11" d="M290.05,99.4c-.4.4-.9.8-1.3,1.2a2.65,2.65,0,0,0-2.3-1.3,2.49,2.49,0,0,0-1.8.8,2.53,2.53,0,0,0,0,3.58h0a2.25,2.25,0,0,0,2.2.7,2.33,2.33,0,0,0,1.9-1.3c.5.4.9.8,1.3,1.1a4.28,4.28,0,0,1-4.1,2,4.46,4.46,0,0,1-4-3.9,4.38,4.38,0,0,1,3.1-4.7,4.64,4.64,0,0,1,5,1.8"/><path class="cls-11" d="M278.15,106h-1.8V99.5h-2.6V97.7h7v1.7h-2.5c-.1,2.3-.1,4.4-.1,6.6"/><path class="cls-11" d="M271.65,106h-1.8V97.7h1.8V106"/><path class="cls-11" d="M297.15,92a1.35,1.35,0,1,0,1.4,1.3,1.35,1.35,0,0,0-1.4-1.3Zm-2.3,1.3a2.2,2.2,0,0,1,2.09-2.3h.21a2.3,2.3,0,1,1-2.3,2.3h0"/><path class="cls-11" d="M283.45,94V91.2h.8c.1,0,.2.2.2.3v4.1h-.8l-.2-.2c-.6-.9-1.3-1.7-2-2.7v2.9h-.9V91.2h.8l.2.2c.6.8,1.2,1.6,1.8,2.3-.1,0-.1.1.1.3"/><path class="cls-11" d="M259.45,91.1h.8c.1,0,.2.1.3.2l1.8,2.4.2.2V91.7c0-.6,0-.6.6-.6h.3v4.4c-.4,0-.8.1-1.1-.4-.5-.8-1.1-1.5-1.6-2.2-.1-.1-.1-.2-.3-.3v2.8l-.1.1c-.8,0-.8,0-.8-.8-.1-1.1-.1-2.3-.1-3.6"/><path class="cls-11" d="M251,91.1h.9v4.4h-.6a.76.76,0,0,1-.4-.2l-1.8-2.4c-.1-.1-.1-.2-.3-.3v2.8h-.1c-.8,0-.8,0-.8-.8V91.3c0-.3.1-.3.3-.3a.86.86,0,0,1,.9.5c.5.7,1.1,1.5,1.6,2.2a.35.35,0,0,1,.1.2,12.49,12.49,0,0,0,.2-2.8"/><path class="cls-11" d="M288.85,93.3v1c0,.2.1.3.2.3h.9a1.28,1.28,0,0,0,1.1-1.2,1.2,1.2,0,0,0-1-1.2h-.9a.27.27,0,0,0-.3.24h0v.86Zm-.9,2.2V91.1h1.4a3.37,3.37,0,0,1,1,.1,2.08,2.08,0,0,1,1.6,2.3,2.13,2.13,0,0,1-1.9,1.9,13.43,13.43,0,0,1-2.1.1"/><path class="cls-11" d="M274.35,92h0c-.1.9-.1.9.7.9h1.5v.8h-2.3v1h2.5v.8h-3.4V91.1h3.4v.7l-.2.1h-1.8a.79.79,0,0,1-.4.1"/><path class="cls-11" d="M267.85,92.1h-1.4v-.9h3.7v.9h-1.3v3.4h-1V92.1"/><path class="cls-11" d="M255.15,91.1h.9v4.4h-.9V91.1"/><path class="cls-11" d="M301.85,105.4c0,.1-.1.3-.1.4l-.2.2-.1-.2c-.1-.1-.1-.2-.2-.4,0,.2-.1.4-.1.6h-.1v-1c.2,0,.2,0,.5.6.2-.2,0-.7.5-.6.1.7.1,1-.2,1.1v-.7h0"/><path class="cls-11" d="M300.25,105.2h-.2l-.1-.1.2-.1h.5l.2.1-.2.1h-.2v.6l-.1.3-.1-.2v-.7"/><path class="cls-11" d="M261.65,61.3a3.3,3.3,0,0,1,6.6.1h0a3.18,3.18,0,0,1-3.16,3.2H265a3.26,3.26,0,0,1-3.3-3.22h0V61.3"/><path class="cls-1" d="M228.45,122.5h13.6a4.8,4.8,0,0,1,4.8,4.8h0v13.1a4.8,4.8,0,0,1-4.8,4.8h-13.6a4.8,4.8,0,0,1-4.8-4.8h0V127.3a4.74,4.74,0,0,1,4.68-4.8h.12Z"/><circle class="cls-12" cx="235.25" cy="133.81" r="7.2"/><circle class="cls-1" cx="342.25" cy="92.29" r="10.9"/><circle class="cls-1" cx="206.78" cy="92.15" r="10.9"/><circle class="cls-1" cx="461.96" cy="130.08" r="19.9"/><circle class="cls-1" cx="419.15" cy="166.3" r="19.9"/><circle class="cls-1" cx="419.15" cy="92.6" r="19.9"/><circle class="cls-1" cx="376.75" cy="129.2" r="19.9"/><circle class="cls-1" cx="313.35" cy="133.6" r="10.9"/><path class="cls-12" d="M313.35,126.7l-3.6,3.2-3.6,3.2h2.5v7.6h9.6v-7.6h2.5l-3.6-3.2Zm-3.3,8h3.3v3.4h-3.3Z"/><path class="cls-1" d="M201.75,0h38.9a10.5,10.5,0,0,1,10.5,10.5v3.1a10.5,10.5,0,0,1-10.5,10.5h-38.9a10.5,10.5,0,0,1-10.5-10.5V10.5A10.5,10.5,0,0,1,201.75,0Z"/><path class="cls-1" d="M301.15,0h38.9a10.5,10.5,0,0,1,10.5,10.5v3.1a10.5,10.5,0,0,1-10.5,10.5h-38.9a10.5,10.5,0,0,1-10.5-10.5V10.5A10.5,10.5,0,0,1,301.15,0Z"/></svg>