<svg id="Layer_1" data-name="Layer 1" xmlns="http://www.w3.org/2000/svg" viewBox="0 0 116.3 56.6"><defs><style>.cls-1{fill:#4d4d4d;}.cls-2{fill:#999;}</style></defs><path class="cls-1" d="M111.4,0H90.3V26.6h21.2a4.8,4.8,0,0,0,4.8-4.8h0V4.8A5,5,0,0,0,111.4,0Z"/><path id="path4391-0" class="cls-2" d="M98,6.8l5.7,3.3,5.7,3.3-5.7,3.3L98,20Z"/><path class="cls-1" d="M30,21.45a4.8,4.8,0,0,0,4.8,4.8h17a4.8,4.8,0,0,0,4.8-4.8V.35H30Z"/><path id="path4391-7" class="cls-2" d="M49.8,8.05l-3.3,5.7-3.3,5.7-3.3-5.7-3.3-5.7Z"/><path class="cls-1" d="M26.6,5.1A4.8,4.8,0,0,0,21.8.3H4.8A4.8,4.8,0,0,0,0,5.1H0V26.3H26.6Z"/><path id="path4391" class="cls-2" d="M6.8,18.5l3.3-5.7,3.3-5.7,3.3,5.7L20,18.5Z"/><path class="cls-1" d="M64.6,0a4.8,4.8,0,0,0-4.8,4.8v17a4.8,4.8,0,0,0,4.8,4.8H85.8V0Z"/><path id="path4391-6" class="cls-2" d="M78,19.8l-5.7-3.3-5.7-3.3,5.7-3.3L78,6.6Z"/><path class="cls-2" d="M111.4,30H90.3V56.6h21.2a4.8,4.8,0,0,0,4.8-4.8h0v-17A5,5,0,0,0,111.4,30Z"/><path id="path4391-0-2" data-name="path4391-0" class="cls-1" d="M98,36.8l5.7,3.3,5.7,3.3-5.7,3.3L98,50Z"/><path class="cls-2" d="M30,51.45a4.8,4.8,0,0,0,4.8,4.8h17a4.8,4.8,0,0,0,4.8-4.8V30.35H30Z"/><path id="path4391-7-2" data-name="path4391-7" class="cls-1" d="M49.8,38.05l-3.3,5.7-3.3,5.7-3.3-5.7-3.3-5.7Z"/><path class="cls-2" d="M26.6,35.1a4.8,4.8,0,0,0-4.8-4.8H4.8A4.8,4.8,0,0,0,0,35.1H0V56.3H26.6Z"/><path id="path4391-2" data-name="path4391" class="cls-1" d="M6.8,48.5l3.3-5.7,3.3-5.7,3.3,5.7L20,48.5Z"/><path class="cls-2" d="M64.6,30a4.8,4.8,0,0,0-4.8,4.8v17a4.8,4.8,0,0,0,4.8,4.8H85.8V30Z"/><path id="path4391-6-2" data-name="path4391-6" class="cls-1" d="M78,49.8l-5.7-3.3-5.7-3.3,5.7-3.3L78,36.6Z"/></svg>