<svg id="Layer_1" data-name="Layer 1" xmlns="http://www.w3.org/2000/svg" viewBox="0 0 129.89 54.08"><defs><style>.cls-1{fill:#999;}.cls-2{fill:#4d4d4d;}</style></defs><rect id="rect4773" class="cls-1" y="30" width="59.89" height="24.08" rx="10.5"/><path id="rect4773-8" class="cls-2" d="M80.5,0h38.9a10.47,10.47,0,0,1,10.49,10.45h0v3.13a10.47,10.47,0,0,1-10.44,10.5H80.5A10.47,10.47,0,0,1,70,13.64h0V10.5A10.47,10.47,0,0,1,80.44,0h.06Z"/><rect id="rect4773-2" data-name="rect4773" class="cls-2" width="59.89" height="24.08" rx="10.5"/><path class="cls-1" d="M18.84,5.11H29.72V6.54L21,17.39h9V19H18.62V17.54L27.38,6.69H18.84Z"/><path class="cls-1" d="M32.65,5.11h1.87V17.39h6.75V19H32.65Z"/><path class="cls-1" d="M87.75,5.11H98.63V6.54L89.88,17.39h9V19H87.54V17.54L96.3,6.69H87.75Z"/><path class="cls-1" d="M108.13,12.47a2.86,2.86,0,0,1,1.18.87,8.93,8.93,0,0,1,1.14,1.84l1.9,3.79h-2l-1.77-3.56a4.9,4.9,0,0,0-1.33-1.84,3,3,0,0,0-1.76-.46h-2V19h-1.88V5.11h4.24a5.38,5.38,0,0,1,3.54,1,3.7,3.7,0,0,1,1.17,3,3.69,3.69,0,0,1-.61,2.17A3.11,3.11,0,0,1,108.13,12.47Zm-4.69-5.82v4.92h2.36a3,3,0,0,0,2-.62,2.38,2.38,0,0,0,.69-1.85,2.32,2.32,0,0,0-.69-1.83,3,3,0,0,0-2-.62Z"/><path class="cls-2" d="M18.84,35.11H29.72v1.43L21,47.39h9V49H18.62V47.54l8.76-10.85H18.84Z"/><path class="cls-2" d="M32.65,35.11h1.87V47.39h6.75V49H32.65Z"/><path id="rect4773-8-2" data-name="rect4773-8" class="cls-1" d="M80.5,30h38.9a10.47,10.47,0,0,1,10.49,10.45h0v3.13a10.47,10.47,0,0,1-10.44,10.5H80.5A10.47,10.47,0,0,1,70,43.64h0V40.5A10.47,10.47,0,0,1,80.44,30h.06Z"/><path class="cls-2" d="M87.75,35.11H98.63v1.43L89.88,47.39h9V49H87.54V47.54L96.3,36.69H87.75Z"/><path class="cls-2" d="M108.13,42.47a2.86,2.86,0,0,1,1.18.87,8.93,8.93,0,0,1,1.14,1.84l1.9,3.79h-2l-1.77-3.56a4.9,4.9,0,0,0-1.33-1.84,3,3,0,0,0-1.76-.46h-2V49h-1.88V35.11h4.24a5.38,5.38,0,0,1,3.54,1,3.7,3.7,0,0,1,1.17,3,3.69,3.69,0,0,1-.61,2.17A3.11,3.11,0,0,1,108.13,42.47Zm-4.69-5.82v4.92h2.36a3,3,0,0,0,2-.62,2.38,2.38,0,0,0,.69-1.85,2.32,2.32,0,0,0-.69-1.83,3,3,0,0,0-2-.62Z"/></svg>