<svg id="Layer_1" data-name="Layer 1" xmlns="http://www.w3.org/2000/svg" viewBox="0 0 550 420"><defs><style>.cls-1{fill:#e9e9e9;}</style></defs><path class="cls-1" d="M124.76,88.51c-.86,0-1.71,0-2.56.07v4.93h5.05V88.58c-.83,0-1.66-.07-2.5-.07Zm-7.22.58c-.83.13-1.64.28-2.45.46h0c-.83.18-1.66.38-2.47.61L113.66,95l2.44-.54h.05l2.44-.54-1-4.81Zm-9.39,2.58c-.77.31-1.53.64-2.29,1h-.07q-1.12.53-2.22,1.11l2.07,4.47,2.27-1,0,0,2.26-1-2.07-4.48Zm-8.6,4.56c-.7.48-1.39,1-2.07,1.49h0c-.66.5-1.3,1-1.93,1.57l3,3.91,2-1.51,0,0,2-1.52-3-3.92Zm-7.43,6.3c-.57.6-1.13,1.22-1.67,1.86h0v0h0c-.54.63-1.06,1.28-1.56,1.94l3.76,3.19,1.62-1.91,0,0,1.62-1.91-3.76-3.19Zm-5.9,7.74c-.43.71-.84,1.44-1.23,2.17h0l0,0v0c-.39.73-.75,1.47-1.1,2.23l4.36,2.3,1.17-2.21,0,0,1.17-2.21-4.35-2.31Zm-4.1,8.83c-.27.78-.51,1.58-.74,2.38h0v0h0c-.22.8-.42,1.61-.6,2.42l4.75,1.31.67-2.41v-.05l.67-2.41-4.75-1.31ZM80,128.61c-.08.82-.15,1.65-.2,2.48h0v.05c0,.78-.06,1.57-.06,2.36v.15l4.92.25.13-2.5v0l.13-2.49L80,128.61Zm4.86,8.94-4.86.8c.09.84.2,1.68.34,2.51v0h0c.14.83.3,1.64.48,2.45l4.86-.8-.41-2.46v0l-.41-2.47ZM86.67,146l-4.57,1.83c.27.8.56,1.6.88,2.39h0c.31.77.64,1.54,1,2.29l4.58-1.84-.93-2.32,0,0L86.67,146Zm3.59,7.89-4.08,2.77c.43.72.88,1.42,1.35,2.11h0c.48.7,1,1.39,1.49,2.06l4.07-2.78L91.69,156l0,0-1.41-2.07Zm5.2,6.94-3.38,3.58a42.92,42.92,0,0,0,3.67,3.47l3.38-3.58-1.81-1.72,0,0-1.82-1.72Zm6.57,5.67-2.54,4.22q1,.7,2.1,1.35h0c.72.44,1.46.85,2.21,1.24l2.53-4.22-2.14-1.29,0,0L102,166.53Zm7.63,4.12-1.57,4.67a46.44,46.44,0,0,0,4.79,1.61l1.57-4.68-2.38-.79,0,0-2.37-.79ZM118,173l-.52,4.9a44,44,0,0,0,5,.53l.51-4.9-2.48-.26h0L118,173Zm13.69,0-2.48.27h0l-2.49.27.54,4.91q1.24-.07,2.49-.21h.07c.82-.1,1.65-.21,2.46-.35l-.54-4.89Zm8.33-2.41-2.37.8,0,0-2.37.8,1.58,4.67c.82-.23,1.63-.47,2.42-.74h0c.79-.26,1.56-.55,2.33-.86L140,170.59Zm7.6-4.15-2.13,1.3,0,0-2.13,1.3,2.55,4.21c.73-.39,1.46-.8,2.17-1.23h0l0,0h0c.71-.44,1.41-.89,2.09-1.36l-2.56-4.21Zm6.55-5.69-1.81,1.72,0,0-1.81,1.72,3.4,3.57c.63-.54,1.25-1.09,1.85-1.67h0c.62-.59,1.21-1.19,1.79-1.8l-3.4-3.57Zm5.18-7-1.4,2.07,0,0-1.4,2.07,4.09,2.76c.51-.67,1-1.35,1.47-2v0h0c.46-.69.91-1.39,1.34-2.11l-4.09-2.75Zm3.56-7.91-.92,2.33,0,0-.92,2.33,4.58,1.81c.35-.75.67-1.51,1-2.29h0v0c.31-.78.59-1.57.86-2.37l-4.58-1.81Zm1.75-8.48-.39,2.47v0l-.39,2.47,4.86.78c.18-.8.33-1.62.47-2.44h0v0h0c.14-.82.24-1.66.33-2.5l-4.87-.77Zm4.83-9-4.92.27.14,2.5v0l.14,2.5,4.92-.28c0-.84,0-1.67-.07-2.5v0c-.05-.84-.12-1.68-.21-2.5Zm-2.13-9.5-4.75,1.33.68,2.41v0l.67,2.41,4.75-1.33a43.6,43.6,0,0,0-1.36-4.86Zm-4.14-8.82-4.34,2.33,1.18,2.2,0,0,1.18,2.2,4.35-2.32c-.35-.76-.73-1.5-1.12-2.23h0l0,0h0c-.39-.74-.81-1.46-1.24-2.17Zm-5.93-7.72-3.75,3.21,1.63,1.9,0,0,1.62,1.9,3.75-3.2c-.5-.67-1-1.31-1.57-2h0c-.55-.64-1.12-1.27-1.7-1.89Zm-7.45-6.27-3,3.94,2,1.5,0,0,2,1.51,3-3.93a46.3,46.3,0,0,0-4-3.05Zm-8.62-4.52-2.06,4.48,2.27,1,.05,0,2.27,1,2.06-4.48c-.75-.4-1.51-.77-2.28-1.13h0c-.76-.35-1.52-.67-2.3-1Zm-9.4-2.55-1,4.82,2.44.53h.05l2.44.52,1-4.81c-.79-.22-1.6-.42-2.42-.6h-.06c-.81-.18-1.63-.33-2.46-.46Z"/><path class="cls-1" d="M345.55,163.7c-.86,0-1.71,0-2.56.07v4.93h5.05v-4.93c-.83-.05-1.66-.07-2.5-.07Zm-7.22.58c-.83.13-1.64.28-2.45.46h0c-.83.18-1.66.38-2.47.61l1.06,4.82,2.44-.54h.05l2.44-.54-1.05-4.81Zm-9.39,2.58c-.77.31-1.53.64-2.29,1h-.07q-1.12.52-2.22,1.11l2.07,4.47,2.27-1.05.05,0,2.26-1-2.07-4.48Zm-8.6,4.56c-.7.48-1.39,1-2.07,1.49h0c-.67.5-1.31,1-1.94,1.57l3,3.91,2-1.51,0,0,2-1.52-3-3.92Zm-7.43,6.3c-.57.6-1.13,1.22-1.67,1.86h0v0h0c-.54.63-1.06,1.28-1.56,1.94l3.76,3.19,1.62-1.91,0,0,1.62-1.91-3.76-3.19Zm-5.9,7.74c-.43.71-.84,1.44-1.23,2.17h0l0,0v0c-.39.73-.75,1.47-1.1,2.23l4.36,2.3,1.17-2.21,0,0,1.17-2.21L307,185.46Zm-4.1,8.83c-.27.78-.51,1.58-.74,2.38h0v0h0c-.22.8-.42,1.61-.6,2.42l4.75,1.31.67-2.41V198l.67-2.41-4.75-1.31Zm-2.1,9.51c-.08.82-.15,1.65-.2,2.48h0v.05c0,.78-.06,1.57-.06,2.36v.15l4.92.25.13-2.5v0l.13-2.49-4.93-.26Zm4.86,8.94-4.86.8c.09.84.2,1.68.34,2.51v0h0c.14.83.3,1.64.48,2.45l4.86-.8-.41-2.46v0l-.41-2.47Zm1.79,8.48-4.57,1.83c.27.8.56,1.6.88,2.39h0c.31.77.64,1.54,1,2.29l4.58-1.84-.93-2.32,0,0-.93-2.32Zm3.59,7.89L307,231.88c.43.72.88,1.42,1.35,2.11h0c.48.7,1,1.39,1.49,2.06l4.07-2.78-1.41-2.06,0,0-1.41-2.07Zm5.2,6.94-3.38,3.58a42.92,42.92,0,0,0,3.67,3.47l3.38-3.58-1.81-1.72,0,0-1.82-1.72Zm6.57,5.67-2.54,4.22q1,.7,2.1,1.35h0c.72.44,1.46.85,2.21,1.24l2.53-4.22L325,243l0,0-2.15-1.29Zm7.63,4.12-1.57,4.67a46.44,46.44,0,0,0,4.79,1.61l1.57-4.68-2.38-.79,0,0-2.37-.79Zm8.33,2.37-.52,4.9a44,44,0,0,0,5,.53l.51-4.9-2.48-.26h-.05l-2.49-.26Zm13.69,0-2.48.27h-.05l-2.49.27.54,4.91q1.25-.07,2.49-.21h.07c.82-.1,1.65-.21,2.46-.35l-.54-4.89Zm8.33-2.41-2.37.8-.05,0-2.37.8,1.58,4.67c.82-.23,1.63-.47,2.42-.74h0c.79-.26,1.56-.55,2.33-.86l-1.58-4.67Zm7.6-4.15-2.13,1.3,0,0-2.13,1.3,2.55,4.21c.73-.39,1.46-.8,2.17-1.23h0l0,0h0c.71-.44,1.41-.89,2.09-1.36l-2.56-4.21Zm6.55-5.69-1.81,1.72,0,0-1.81,1.72,3.4,3.57c.63-.54,1.25-1.09,1.85-1.67h0c.62-.59,1.21-1.19,1.79-1.8l-3.4-3.57Zm5.18-7-1.4,2.07,0,0-1.4,2.07,4.09,2.76c.51-.67,1-1.35,1.47-2v0h0c.46-.69.91-1.39,1.34-2.11L380.13,229Zm3.56-7.91-.92,2.33,0,0-.92,2.33,4.58,1.81c.35-.75.67-1.51,1-2.29h0v0c.31-.78.59-1.57.86-2.37l-4.58-1.81Zm1.75-8.48-.39,2.47v0l-.39,2.47,4.86.78c.18-.8.33-1.62.47-2.44h0v0h0c.14-.82.24-1.66.33-2.5l-4.87-.77Zm4.83-9-4.92.27.14,2.5v0l.14,2.5,4.92-.28c0-.84,0-1.67-.07-2.5v0c-.05-.84-.12-1.68-.21-2.5Zm-2.13-9.5-4.75,1.33.68,2.41v0l.67,2.41L389.5,199a43.6,43.6,0,0,0-1.36-4.86ZM384,185.31l-4.34,2.33,1.18,2.2,0,0,1.18,2.2,4.35-2.32c-.35-.76-.73-1.5-1.12-2.23h0l0-.05h0c-.39-.74-.81-1.46-1.24-2.17Zm-5.93-7.72-3.75,3.21,1.63,1.9,0,0,1.62,1.9,3.75-3.2c-.5-.67-1-1.31-1.56-1.95h0c-.55-.64-1.12-1.27-1.7-1.89Zm-7.45-6.27-3,3.94,2,1.5,0,0,2,1.51,3-3.93a46.3,46.3,0,0,0-4-3.05ZM362,166.8l-2.06,4.48,2.27,1,.05,0,2.27,1,2.06-4.48c-.75-.4-1.51-.77-2.28-1.13h0c-.76-.35-1.53-.67-2.3-1Zm-9.4-2.55-1,4.82,2.44.53h.05l2.44.52,1-4.81c-.79-.22-1.6-.42-2.42-.6h-.06c-.81-.18-1.63-.33-2.46-.46Z"/></svg>