<svg id="Layer_1" data-name="Layer 1" xmlns="http://www.w3.org/2000/svg" viewBox="0 0 120 45"><defs><style>.cls-1{fill:#e9e9e9;}</style></defs><path class="cls-1" d="M110,3a7,7,0,0,1,0,14H10A7,7,0,0,1,10,3H110m0-3H10A10,10,0,0,0,0,10H0A10,10,0,0,0,10,20H110a10,10,0,0,0,10-10h0A10,10,0,0,0,110,0Z"/><path class="cls-1" d="M10,43.5a8.5,8.5,0,0,1,0-17H110a8.5,8.5,0,0,1,0,17Z"/><path class="cls-1" d="M110,28a7,7,0,0,1,0,14H10a7,7,0,0,1,0-14H110m0-3H10A10,10,0,0,0,0,35H0A10,10,0,0,0,10,45H110a10,10,0,0,0,10-10h0a10,10,0,0,0-10-10Z"/></svg>