<svg id="Layer_1" data-name="Layer 1" xmlns="http://www.w3.org/2000/svg" viewBox="0 0 116.3 56.6"><defs><style>.cls-1{fill:#e9e9e9;}</style></defs><path class="cls-1" d="M111.4,0H90.3V3h21.06a2,2,0,0,1,1.94,1.87V21.8a1.81,1.81,0,0,1-1.8,1.8H90.6v3h20.9a4.8,4.8,0,0,0,4.8-4.8V4.8h0A5,5,0,0,0,111.4,0Z"/><path class="cls-1" d="M56.6.35h-3V2.12h2.94v.06H53.6V21.45a1.81,1.81,0,0,1-1.8,1.8h-17a1.81,1.81,0,0,1-1.8-1.8V.35H30v3h0v18.1a4.8,4.8,0,0,0,4.8,4.8h17a4.8,4.8,0,0,0,4.8-4.8V.35Z"/><path class="cls-1" d="M21.8.3H4.8A4.8,4.8,0,0,0,0,5.1V26.3H3V5.1A1.81,1.81,0,0,1,4.8,3.3h17V.3Zm0,0v3a1.81,1.81,0,0,1,1.8,1.8V26.3h3V5.1A4.8,4.8,0,0,0,21.8.3Z"/><path class="cls-1" d="M85.8,0H64.6a4.8,4.8,0,0,0-4.8,4.8v17a4.8,4.8,0,0,0,4.8,4.8H85.8v-3H64.6a1.81,1.81,0,0,1-1.8-1.8V4.8A1.81,1.81,0,0,1,64.6,3H85.8V0Z"/><path class="cls-1" d="M111.4,30H90.3V56.6h21.2a4.8,4.8,0,0,0,4.8-4.8h0v-17A5,5,0,0,0,111.4,30Z"/><path class="cls-1" d="M30,51.45a4.8,4.8,0,0,0,4.8,4.8h17a4.8,4.8,0,0,0,4.8-4.8V30.35H30Z"/><path class="cls-1" d="M26.6,35.1a4.8,4.8,0,0,0-4.8-4.8H4.8A4.8,4.8,0,0,0,0,35.1H0V56.3H26.6Z"/><path class="cls-1" d="M64.6,30a4.8,4.8,0,0,0-4.8,4.8v17a4.8,4.8,0,0,0,4.8,4.8H85.8V30Z"/></svg>