<svg id="Layer_1" data-name="Layer 1" xmlns="http://www.w3.org/2000/svg" viewBox="0 0 134 64.35"><defs><style>.cls-1{fill:#e9e9e9;}</style></defs><path class="cls-1" d="M99,0H75a5,5,0,0,0-5,5V21.6a5,5,0,0,0,5,5H98.69v-3H75a2,2,0,0,1-2-2V5a2,2,0,0,1,2-2H99V0Z"/><path class="cls-1" d="M21.6.35H5a5,5,0,0,0-5,5v24H3v-24a2,2,0,0,1,2-2H21.6v-3Zm0,0v3a2,2,0,0,1,2,2v24h3v-24a5,5,0,0,0-5-5Z"/><path class="cls-1" d="M38,.35H35v3h0v21a5,5,0,0,0,5,5H56.6a5,5,0,0,0,5-5V7.2h-3V24.35a2,2,0,0,1-2,2H40a2,2,0,0,1-2-2V.35Zm23.6,0h-3v6.8h3V.35Z"/><path class="cls-1" d="M129,0H105V3h24V0Zm0,0V3a2,2,0,0,1,2,2V21.6a2,2,0,0,1-2,2H105V26h0v0h0v.6h24a5,5,0,0,0,5-5V5a5,5,0,0,0-5-5Z"/><path class="cls-1" d="M75,60.1a3.5,3.5,0,0,1-3.5-3.5V40A3.5,3.5,0,0,1,75,36.5H97.5V60.1Z"/><path class="cls-1" d="M96,38V58.6H75a2,2,0,0,1-2-2V40a2,2,0,0,1,2-2H96m3-3H75a5,5,0,0,0-5,5V56.6a5,5,0,0,0,5,5H99V35Z"/><path class="cls-1" d="M1.5,62.85V40.35A3.5,3.5,0,0,1,5,36.85H21.6a3.5,3.5,0,0,1,3.5,3.5v22.5Z"/><path class="cls-1" d="M21.6,38.35a2,2,0,0,1,2,2v21H3v-21a2,2,0,0,1,2-2H21.6m0-3H5a5,5,0,0,0-5,5v24H26.6v-24a5,5,0,0,0-5-5Z"/><path class="cls-1" d="M40,62.85a3.5,3.5,0,0,1-3.5-3.5V36.85H60.1v22.5a3.5,3.5,0,0,1-3.5,3.5Z"/><path class="cls-1" d="M58.6,38.35v21a2,2,0,0,1-2,2H40a2,2,0,0,1-2-2v-21H58.6m3-3H35v24a5,5,0,0,0,5,5H56.6a5,5,0,0,0,5-5v-24Z"/><path class="cls-1" d="M106.5,60.1V36.5H129a3.5,3.5,0,0,1,3.5,3.5V56.6a3.5,3.5,0,0,1-3.5,3.5Z"/><path class="cls-1" d="M129,38a2,2,0,0,1,2,2V56.6a2,2,0,0,1-2,2H108V38h21m0-3H105V61.6h24a5,5,0,0,0,5-5V40a5,5,0,0,0-5-5Z"/></svg>