<svg id="Layer_1" data-name="Layer 1" xmlns="http://www.w3.org/2000/svg" viewBox="0 0 46 44"><defs><style>.cls-1{fill:#e9e9e9;}</style></defs><g id="path4096-29"><path class="cls-1" d="M35.1,3a7.9,7.9,0,1,1-7.9,7.9A7.9,7.9,0,0,1,35.1,3m0-3A10.9,10.9,0,1,0,46,10.9,10.9,10.9,0,0,0,35.1,0Z"/></g><g id="path4096-2-3-3"><path class="cls-1" d="M10.9,3A7.9,7.9,0,1,1,3,10.9,7.9,7.9,0,0,1,10.9,3m0-3A10.9,10.9,0,1,0,21.8,10.9,10.9,10.9,0,0,0,10.9,0Z"/></g><circle id="path4096-2-3-3-2" class="cls-1" cx="10.9" cy="33.1" r="10.9"/><circle id="path4096-29-2" class="cls-1" cx="35.1" cy="33.1" r="10.9"/></svg>