<svg id="Layer_1" data-name="Layer 1" xmlns="http://www.w3.org/2000/svg" viewBox="0 0 80 45"><defs><style>.cls-1{fill:#e9e9e9;}</style></defs><path class="cls-1" d="M70,3a7,7,0,0,1,0,14H10A7,7,0,0,1,10,3H70m0-3H10A10,10,0,0,0,0,10H0A10,10,0,0,0,10,20H70A10,10,0,0,0,80,10h0A10,10,0,0,0,70,0Z"/><path class="cls-1" d="M10,43.5a8.5,8.5,0,0,1,0-17H70a8.5,8.5,0,0,1,0,17Z"/><path class="cls-1" d="M70,28a7,7,0,0,1,0,14H10a7,7,0,0,1,0-14H70m0-3H10A10,10,0,0,0,0,35H0A10,10,0,0,0,10,45H70A10,10,0,0,0,80,35h0A10,10,0,0,0,70,25Z"/></svg>