<svg id="Layer_1" data-name="Layer 1" xmlns="http://www.w3.org/2000/svg" viewBox="0 0 188 89.2"><defs><style>.cls-1{fill:#999;}.cls-2{fill:#4d4d4d;}</style></defs><circle id="path3817-5-6-2-9-6" class="cls-1" cx="118.7" cy="69.3" r="19.9"/><g id="text4665-5-4"><path id="path4740" class="cls-2" d="M113.2,62.08h2.1l3.5,5.3,3.6-5.3h2.1l-4.6,6.8,4.9,7.4h-2.1l-4-6.1-4,6.1h-2.1l5.1-7.6Z"/></g><circle id="path3817-5-6-2-9-1-1" class="cls-1" cx="168.1" cy="69.3" r="19.9"/><g id="text4665-3"><path id="path4743" class="cls-2" d="M162.1,62.08h2.1l4,5.9,3.9-5.9h2.1l-5,7.5v6.8h-1.9v-6.8Z"/></g><circle id="path3817-5-6-2-9-1-1-2" data-name="path3817-5-6-2-9-1-1" class="cls-2" cx="168.1" cy="19.9" r="19.9"/><g id="text4665-3-2" data-name="text4665-3"><path id="path4743-2" data-name="path4743" class="cls-1" d="M162.1,12.78h2.1l4,5.9,3.9-5.9h2.1l-5,7.5v6.8h-1.9v-6.8Z"/></g><g id="g4873"><circle id="path3817-5-6-2-9-6-2" data-name="path3817-5-6-2-9-6" class="cls-2" cx="118.66" cy="19.87" r="19.8"/><g id="text4665-5-4-2" data-name="text4665-5-4"><path id="path4740-2" data-name="path4740" class="cls-1" d="M113.28,12.76h2.08L118.91,18l3.54-5.26h2.08l-4.65,6.85,4.89,7.46H122.7l-4-6.12-4,6.12h-2.08l5.13-7.58Z"/></g></g><g id="g4878"><circle id="path3817-5-6-2-3" class="cls-2" cx="19.89" cy="19.87" r="19.8"/><g id="text4665-5"><path id="path4737" class="cls-1" d="M19.89,14.6l-2.57,7.09h5.26Zm-1.1-1.84H21l5.5,14.31h-2L23.19,23.4H16.71l-1.34,3.67H13.29Z"/></g></g><circle id="path3817-5-6-2-3-2" data-name="path3817-5-6-2-3" class="cls-1" cx="19.9" cy="69.3" r="19.9"/><g id="text4665-5-2" data-name="text4665-5"><path id="path4737-2" data-name="path4737" class="cls-2" d="M19.9,64l-2.6,7.1h5.2Zm-1.1-1.9H21l5.4,14.3h-2l-1.3-3.7H16.7l-1.3,3.7h-2Z"/></g><g id="g4883"><circle id="path3817-5-6-7" class="cls-2" cx="69.27" cy="19.87" r="19.8"/><g id="text4665-54"><path id="path4734" class="cls-1" d="M66.22,20.22v5.26h3a4.13,4.13,0,0,0,2.33-.61,2.58,2.58,0,0,0,.73-2,2.41,2.41,0,0,0-.73-2,3.85,3.85,0,0,0-2.33-.61h-3Zm0-5.87v4.28H69a3.25,3.25,0,0,0,2.08-.49,1.8,1.8,0,0,0,.73-1.59A1.82,1.82,0,0,0,71.11,15,3.32,3.32,0,0,0,69,14.48H66.22Zm-2-1.59h4.89a5,5,0,0,1,3.43,1,2.94,2.94,0,0,1,1.22,2.57,3.57,3.57,0,0,1-.61,2.08,2.72,2.72,0,0,1-1.84,1,3.84,3.84,0,0,1,2.2,1.22A3.85,3.85,0,0,1,74.29,23,3.74,3.74,0,0,1,72.94,26a5.49,5.49,0,0,1-3.67,1.1H64.14Z"/></g></g><circle id="path3817-5-6-7-2" data-name="path3817-5-6-7" class="cls-1" cx="69.3" cy="69.3" r="19.9"/><g id="text4665-54-2" data-name="text4665-54"><path id="path4734-2" data-name="path4734" class="cls-2" d="M66.2,69.58v5.2h3.1a3.71,3.71,0,0,0,2.3-.6,2.48,2.48,0,0,0,.8-2,2.63,2.63,0,0,0-.8-2,3.71,3.71,0,0,0-2.3-.6Zm0-5.9V68h2.9a4.06,4.06,0,0,0,2.1-.5,1.86,1.86,0,0,0,.7-1.6,1.75,1.75,0,0,0-.7-1.6,3.28,3.28,0,0,0-2.1-.5H66.2Zm-2-1.6h5a5.51,5.51,0,0,1,3.4.9,3.09,3.09,0,0,1,1.2,2.6,3.28,3.28,0,0,1-.6,2.1,3.17,3.17,0,0,1-1.8,1A3.55,3.55,0,0,1,73.6,70a3.65,3.65,0,0,1,.8,2.4,3.54,3.54,0,0,1-1.3,3,5.82,5.82,0,0,1-3.7,1H64.2Z"/></g></svg>