<svg id="Layer_1" data-name="Layer 1" xmlns="http://www.w3.org/2000/svg" viewBox="0 0 62.9 111.1"><defs><style>.cls-1{fill:#999;}.cls-2{fill:#4d4d4d;}</style></defs><path class="cls-1" d="M33.6,84.5H12.5v26.6H33.7a4.8,4.8,0,0,0,4.8-4.8v-17A5,5,0,0,0,33.6,84.5Z"/><path id="path4391-0" class="cls-2" d="M20.2,91.3l5.7,3.3,5.7,3.3-5.7,3.3-5.7,3.3V91.3Z"/><path class="cls-1" d="M36.3,24.6a4.8,4.8,0,0,0,4.8,4.8h17a4.8,4.8,0,0,0,4.8-4.8V3.5H36.3Z"/><path id="path4391-7" class="cls-2" d="M56.1,11.2l-3.3,5.7-3.3,5.7-3.3-5.7-3.3-5.7H56.1Z"/><path class="cls-1" d="M26.6,4.8A4.8,4.8,0,0,0,21.8,0H4.8A4.8,4.8,0,0,0,0,4.8V26H26.6Z"/><path id="path4391" class="cls-2" d="M6.8,18.2l3.3-5.7,3.3-5.7,3.3,5.7L20,18.2H6.8Z"/><path class="cls-1" d="M13.8,48.2A4.8,4.8,0,0,0,9,53V70a4.8,4.8,0,0,0,4.8,4.8H35V48.2Z"/><path id="path4391-6" class="cls-2" d="M27.2,68l-5.7-3.3-5.7-3.3,5.7-3.3,5.7-3.3V68Z"/></svg>