<svg id="Layer_1" data-name="Layer 1" xmlns="http://www.w3.org/2000/svg" viewBox="0 0 129.89 54.08"><defs><style>.cls-1{fill:#808181;}.cls-2{fill:#4e4d4d;}</style></defs><g id="g4863"><path id="rect4773-8" class="cls-1" d="M80.5,0h38.9a10.47,10.47,0,0,1,10.49,10.45v3.13a10.47,10.47,0,0,1-10.44,10.5H80.5A10.47,10.47,0,0,1,70,13.64V10.5A10.47,10.47,0,0,1,80.44,0Z"/><g id="text4792-8"><path id="path5009" class="cls-2" d="M95.86,12.58a2.74,2.74,0,0,1,1.14.85,8.53,8.53,0,0,1,1.12,1.79L100,18.9H98l-1.72-3.46A4.81,4.81,0,0,0,95,13.65a3,3,0,0,0-1.71-.45h-2v5.7H89.47V5.43h4.12a5.27,5.27,0,0,1,3.45,1A3.65,3.65,0,0,1,98.2,9.31a3.59,3.59,0,0,1-.59,2.11,3,3,0,0,1-1.72,1.16ZM91.3,6.92v4.79h2.29a2.84,2.84,0,0,0,2-.61,2.26,2.26,0,0,0,.68-1.79,2.23,2.23,0,0,0-.68-1.78,2.83,2.83,0,0,0-2-.61Z"/><path id="path5011" class="cls-2" d="M104.06,17.36h6.36V18.9h-8.56V17.36l2.83-2.87q1.8-1.82,2.25-2.34a8.45,8.45,0,0,0,1.26-1.66,2.77,2.77,0,0,0,.35-1.35,2.23,2.23,0,0,0-.75-1.75,2.86,2.86,0,0,0-2-.67A6.59,6.59,0,0,0,104,7a11,11,0,0,0-2,.91V6.08A13.76,13.76,0,0,1,104,5.41a7.92,7.92,0,0,1,1.75-.23,5,5,0,0,1,3.34,1.05A3.47,3.47,0,0,1,110.35,9a4,4,0,0,1-.32,1.57,7.24,7.24,0,0,1-1.13,1.76c-.15.17-.63.68-1.43,1.51Z"/></g></g><g id="g4858"><rect id="rect4773" class="cls-1" width="59.89" height="24.08" rx="10.5"/><g id="text4792"><path id="path5003" class="cls-2" d="M20.75,5.43h1.83V17.36h6.56V18.9H20.75Z"/><path id="path5005" class="cls-2" d="M32.77,17.36h6.37V18.9H30.58V17.36c.69-.71,1.63-1.67,2.83-2.87s1.94-2,2.25-2.34a8.66,8.66,0,0,0,1.22-1.66,3,3,0,0,0,.35-1.35,2.24,2.24,0,0,0-.76-1.75,2.83,2.83,0,0,0-1.95-.67A6.23,6.23,0,0,0,32.7,7a10.32,10.32,0,0,0-2,.91V6.08a13.76,13.76,0,0,1,2.06-.67,7.92,7.92,0,0,1,1.75-.23,5,5,0,0,1,3.34,1.05A3.46,3.46,0,0,1,39.06,9a4,4,0,0,1-.31,1.57,7.24,7.24,0,0,1-1.13,1.76c-.15.17-.63.68-1.44,1.51s-1.94,2-3.41,3.49Z"/></g></g><rect id="rect4773-2" data-name="rect4773" class="cls-2" y="30" width="59.89" height="24.08" rx="10.5"/><g id="text4792-2" data-name="text4792"><path id="path5003-2" data-name="path5003" class="cls-1" d="M20.75,35.43h1.83V47.36h6.56V48.9H20.75Z"/><path id="path5005-2" data-name="path5005" class="cls-1" d="M32.77,47.36h6.37V48.9H30.58V47.36c.69-.71,1.63-1.67,2.83-2.87s1.94-2,2.25-2.34a8.66,8.66,0,0,0,1.22-1.66,3,3,0,0,0,.35-1.35,2.24,2.24,0,0,0-.76-1.75,2.83,2.83,0,0,0-1.95-.67A6.23,6.23,0,0,0,32.7,37a10.32,10.32,0,0,0-2,.91V36.08a13.76,13.76,0,0,1,2.06-.67,7.92,7.92,0,0,1,1.75-.23,5,5,0,0,1,3.34,1A3.46,3.46,0,0,1,39.06,39a4,4,0,0,1-.31,1.57,7.24,7.24,0,0,1-1.13,1.76c-.15.17-.63.68-1.44,1.51s-1.94,2-3.41,3.49Z"/></g><path id="rect4773-8-2" data-name="rect4773-8" class="cls-2" d="M80.5,30h38.9a10.47,10.47,0,0,1,10.49,10.45v3.13a10.47,10.47,0,0,1-10.44,10.5H80.5A10.47,10.47,0,0,1,70,43.64V40.5A10.47,10.47,0,0,1,80.44,30Z"/><g id="text4792-8-2" data-name="text4792-8"><path id="path5009-2" data-name="path5009" class="cls-1" d="M95.86,42.58a2.74,2.74,0,0,1,1.14.85,8.53,8.53,0,0,1,1.12,1.79L100,48.9H98l-1.72-3.46A4.81,4.81,0,0,0,95,43.65a3,3,0,0,0-1.71-.45h-2v5.7H89.47V35.43h4.12a5.27,5.27,0,0,1,3.45,1,3.65,3.65,0,0,1,1.16,2.88,3.59,3.59,0,0,1-.59,2.11,3,3,0,0,1-1.72,1.16ZM91.3,36.92v4.79h2.29a2.84,2.84,0,0,0,2-.61,2.26,2.26,0,0,0,.68-1.79,2.23,2.23,0,0,0-.68-1.78,2.83,2.83,0,0,0-2-.61Z"/><path id="path5011-2" data-name="path5011" class="cls-1" d="M104.06,47.36h6.36V48.9h-8.56V47.36l2.83-2.87q1.8-1.82,2.25-2.34a8.45,8.45,0,0,0,1.26-1.66,2.77,2.77,0,0,0,.35-1.35,2.23,2.23,0,0,0-.75-1.75,2.86,2.86,0,0,0-2-.67A6.59,6.59,0,0,0,104,37a11,11,0,0,0-2,.91V36.08a13.76,13.76,0,0,1,2.06-.67,7.92,7.92,0,0,1,1.75-.23,5,5,0,0,1,3.34,1A3.47,3.47,0,0,1,110.35,39a4,4,0,0,1-.32,1.57,7.24,7.24,0,0,1-1.13,1.76c-.15.17-.63.68-1.43,1.51Z"/></g></svg>